<svg xmlns="http://www.w3.org/2000/svg" version="1.1" xmlns:xlink="http://www.w3.org/1999/xlink" xmlns:svgjs="http://svgjs.com/svgjs" width="121" height="121"><svg width="121" height="121" viewBox="0 0 121 121" fill="none" xmlns="http://www.w3.org/2000/svg">
<path d="M59.9341 58.6216C59.9341 58.6216 3.06393 63.6935 3.3261 67.5655C3.58827 71.4375 4.26385 85.5845 7.73253 89.7288C11.2012 93.873 24.2894 102.01 34.1711 107.213C44.0528 112.416 62.0718 121.229 72.0846 120.967C82.0974 120.705 100.258 104.813 101.054 100.679C101.851 96.5451 100.792 81.7226 100.792 81.7226L59.9341 58.6216Z" fill="#C9CABB"></path>
<path d="M40.9777 25.5078L23.4932 31.5175C23.4932 31.5175 23.9368 36.6297 24.8242 40.0581C25.893 44.1923 28.4239 53.9429 36.9746 57.5426C45.5152 61.1424 92.2416 71.5585 95.0447 70.7619C97.8479 69.9653 106.53 62.8868 109.726 60.2147C112.933 57.5426 78.75 23.239 78.75 23.239L40.9777 25.5078Z" fill="#C9CABB"></path>
<path d="M48.1873 24.177L28.0307 28.3112C28.0307 28.3112 30.4305 47.399 34.5748 50.4744C38.719 53.5499 88.5107 66.0936 91.576 65.6902C94.6515 65.2869 105.995 56.8774 105.995 56.8774C105.995 56.8774 109.071 46.1991 108.93 45.7957C108.798 45.4025 48.1873 24.177 48.1873 24.177ZM8.27734 68.8967C8.27734 68.8967 9.07393 83.3159 11.0805 85.8469C13.0871 88.3879 24.0276 97.0596 38.4468 104.007C52.866 110.954 66.7508 115.22 72.3571 115.351C77.9635 115.482 95.0548 102 96.3858 99.3283C97.7168 96.6562 94.9136 81.5715 94.9136 81.5715L8.27734 68.8967Z" fill="white"></path>
<path d="M20.9524 35.7829C25.5202 37.8701 28.5654 28.7043 42.5812 28.5733C56.5971 28.4422 69.282 35.9139 78.0949 40.3204C86.9077 44.7268 105.058 59.4082 110.533 61.0114C116.008 62.6147 121.08 57.1394 120.949 49.7987C120.818 42.4581 117.743 22.6947 97.7171 9.87869C77.6915 -2.93727 51.8378 -2.01968 36.3497 5.45209C20.8112 12.9743 12.3715 31.8604 20.9524 35.7829Z" fill="#FF6110"></path>
<path d="M33.7481 36.5492C33.9599 38.1121 36.0976 38.3138 38.3462 37.9407C39.9998 37.6684 42.198 36.8214 41.8753 34.9459C41.6434 33.5645 39.0419 33.1814 37.116 33.6149C35.1901 34.0485 33.5364 34.9964 33.7481 36.5492ZM71.5809 46.8544C71.2683 48.7097 73.5573 49.4156 76.0176 49.6878C78.478 49.95 80.293 49.8996 80.666 48.135C81.0391 46.3704 78.5284 45.5133 76.6629 45.3016C74.7975 45.0898 71.8935 44.9386 71.5809 46.8544ZM87.6639 52.8439C86.5144 53.8422 86.9682 55.4051 89.2167 57.4419C91.4653 59.4687 92.9577 59.4687 93.8148 58.5108C94.6718 57.5529 93.2803 55.3043 91.9997 54.1245C90.7091 52.9548 88.884 51.7751 87.6639 52.8439ZM12.9058 81.7529C11.5345 83.3663 12.8554 85.2821 15.2048 87.2584C17.5543 89.2348 19.5104 91.0901 20.9725 89.6583C22.9489 87.7324 19.9541 85.0603 18.3004 83.6184C16.6468 82.1764 14.4082 79.9883 12.9058 81.7529ZM22.4245 82.1764C21.7187 83.4772 22.5153 84.8687 24.9353 86.0787C27.2847 87.2584 28.5653 87.1979 29.372 85.9174C30.1786 84.6368 28.3031 82.8722 26.4881 82.0655C24.663 81.2689 23.1102 80.8958 22.4245 82.1764ZM24.4513 92.6732C24.3605 94.1857 24.905 95.3756 29.5131 95.8192C34.1212 96.273 34.9884 94.8613 35.0287 93.6816C35.0892 91.9976 33.4557 91.0397 30.0778 90.8078C26.6999 90.586 24.5622 90.7574 24.4513 92.6732Z" fill="#D4D3D4"></path>
<path d="M27.648 33.3931C27.1136 30.5495 26.4884 26.7078 27.3758 22.0594C28.7874 14.6481 34.182 7.74097 43.4184 2.72954C47.5324 1.38845 52.3825 0.591865 56.2344 0.24903C57.6864 0.117947 58.9972 0.0574466 60.0761 0.0473633C57.8679 0.763282 53.1488 1.86237 48.4903 4.04038C38.6086 8.65856 32.8712 15.5757 31.5604 22.4627C30.9352 25.7499 31.0562 28.8152 31.3789 31.1646C30.068 31.9007 28.7168 32.657 27.648 33.3931ZM50.0936 29.1883C50.0633 25.7398 50.7793 20.9401 54.258 16.937C59.9954 10.3324 69.1108 6.95447 74.9491 5.39155C78.0245 4.56471 81.5839 4.06054 85.0526 3.76813C86.6155 4.30254 89.4389 5.31088 92.8874 7.10572C88.4608 7.04522 82.7637 7.30739 77.9943 8.58797C68.8184 11.0584 61.2155 15.1119 57.5351 19.3469C54.5605 22.7652 54.1068 27.1414 54.2177 30.0756C52.5136 29.6723 51.475 29.4505 50.0936 29.1883ZM69.8772 36.1559C70.9258 33.1208 72.9022 29.2891 76.6532 26.2036C86.4038 18.1974 97.0014 17.2798 100.299 16.937C102.346 16.7253 104.362 16.6244 106.187 16.6043C107.438 17.8143 108.98 19.4578 109.868 20.6073C107.629 20.5065 104.665 20.4964 101.62 20.8292C99.4718 21.0611 87.755 22.5434 79.6479 29.1984C76.3607 31.9007 74.5962 35.3996 73.6584 38.0717C72.3476 37.4264 71.4502 36.9323 69.8772 36.1559ZM87.7751 46.3098C89.2876 44.0713 91.9597 40.764 95.9628 38.1726C102.658 33.8266 108.779 32.3444 116.291 32.3444C116.523 32.3444 116.755 32.3444 116.987 32.3545C117.723 33.9779 118.217 35.4904 118.56 36.4887C117.854 36.4181 117.098 36.3777 116.291 36.3777C109.606 36.3777 104.181 37.8499 98.1812 41.7421C94.7629 43.9604 92.4336 46.7737 91.1329 48.629C89.5195 47.5299 88.5213 46.8443 87.7751 46.3098Z" fill="#FE8E6E"></path>
<path d="M26.6293 16.0093C27.6175 16.5437 27.2545 19.0847 26.0042 21.0107C24.7538 22.9265 23.4632 24.4491 22.0313 23.7735C20.5995 23.108 21.5877 20.0225 22.475 18.6007C23.3724 17.1689 24.9858 15.122 26.6293 16.0093ZM46.181 12.3995C48.1372 14.638 44.3962 16.1908 44.1744 18.2882C43.9526 20.3855 45.7172 19.5082 45.6062 21.7266C45.4752 24.2676 36.2791 26.0523 35.0288 21.5047C33.7684 16.9471 43.4585 9.27362 46.181 12.3995ZM66.7813 17.7235C65.2991 16.2009 61.5581 17.5016 59.37 19.8208C57.1819 22.14 56.6072 26.1532 60.57 27.6253C64.5428 29.0975 65.4806 26.9094 65.2083 25.9717C65.0369 25.3566 64.5428 23.9147 65.1176 22.8962C65.7125 21.8778 68.5661 19.5587 66.7813 17.7235Z" fill="#F6FFFE"></path>
<path d="M36.9345 54.2556C36.9345 54.2556 1.08809 58.4099 0.372171 61.7072C-0.474832 65.6195 0.180587 68.5134 1.76368 70.4494C4.50635 73.8072 15.8905 74.997 31.2071 82.2067C45.1524 88.7709 50.7386 92.3102 58.9364 96.4645C67.1341 100.619 73.1942 102.303 79.1434 100.841C85.0926 99.3786 91.9392 96.9082 97.6666 92.3102C101.992 88.8314 103.555 83.9208 103.162 78.9497C102.829 74.7147 100.581 70.1974 97.7775 67.9488C94.9642 65.7002 37.0454 53.8018 36.9345 54.2556Z" fill="#CC1935"></path>
<path d="M27.8397 43.5875C7.29987 47.399 -0.0710654 59.4285 0.42302 62.1006C0.735604 63.7845 5.03112 62.9476 21.7897 68.8463C46.0402 77.3769 65.37 87.5409 72.2166 88.6702C81.6345 90.213 91.2439 84.8184 95.005 82.0455C101.085 77.5584 101.811 72.8898 99.5728 69.8647C97.3141 66.8297 84.1956 54.3464 64.6641 47.399C49.0954 41.8733 39.002 41.5103 27.8397 43.5875Z" fill="#FF605F"></path>
<path d="M13.3093 51.4522C10.9699 51.1901 2.52006 56.4838 5.50473 61.2432C8.49949 66.0126 22.5759 65.3169 22.8784 61.8078C23.2313 57.7644 14.9932 57.7745 13.8235 56.0402C12.6538 54.3159 16.062 51.7648 13.3093 51.4522Z" fill="#F9FFFF"></path>
</svg><style>@media (prefers-color-scheme: light) { :root { filter: none; } }
</style></svg>