<?xml version="1.0" standalone="no"?>
<!DOCTYPE svg PUBLIC "-//W3C//DTD SVG 20010904//EN"
 "http://www.w3.org/TR/2001/REC-SVG-20010904/DTD/svg10.dtd">
<svg version="1.0" xmlns="http://www.w3.org/2000/svg"
 width="316.000000pt" height="316.000000pt" viewBox="0 0 316.000000 316.000000"
 preserveAspectRatio="xMidYMid meet">
<metadata>
Created by potrace 1.14, written by Peter Selinger 2001-2017
</metadata>
<g transform="translate(0.000000,316.000000) scale(0.100000,-0.100000)"
fill="#000000" stroke="none">
<path d="M734 2772 c-96 -85 -95 -239 3 -290 31 -17 39 -15 57 13 16 24 15 25
-15 40 -69 36 -86 152 -34 229 14 20 23 36 22 36 -1 0 -16 -13 -33 -28z"/>
<path d="M771 2777 l-22 -24 36 -24 c63 -43 78 -130 36 -210 -21 -39 -21 -40
-1 -29 11 6 33 29 48 52 22 35 27 52 26 104 0 64 -16 100 -57 137 -27 23 -39
22 -66 -6z"/>
<path d="M1090 2791 c-51 -21 -57 -32 -48 -84 5 -28 7 -66 3 -85 l-6 -35 -27
27 c-25 24 -27 33 -26 101 l1 74 -36 -19 c-32 -16 -37 -23 -35 -48 5 -77 36
-125 87 -137 15 -4 27 -11 27 -15 0 -5 -18 -31 -40 -59 -22 -28 -38 -51 -34
-51 18 0 86 61 112 100 34 53 44 85 48 161 3 62 -4 79 -26 70z"/>
<path d="M1515 2760 c-16 -36 -74 -102 -76 -87 -1 4 -3 12 -4 17 -1 6 -3 31
-4 58 l-2 47 -15 -45 c-7 -25 -14 -59 -14 -76 0 -21 -6 -34 -17 -38 -12 -5
-14 -9 -6 -14 6 -4 12 -34 14 -67 4 -91 7 -94 65 -56 20 13 20 17 9 45 -21 50
-25 94 -9 100 43 16 76 -46 83 -157 1 -17 2 -17 32 0 17 10 33 24 36 30 8 19
-43 99 -78 124 l-31 22 25 23 c31 29 81 93 76 98 -2 2 -18 6 -35 9 -29 6 -33
3 -49 -33z"/>
<path d="M1873 2773 c-19 -39 -17 -43 22 -43 40 0 40 1 20 -65 -17 -56 -22
-172 -8 -186 10 -10 87 19 80 30 -43 76 -55 194 -20 218 52 37 86 86 46 65
-20 -10 -51 -10 -98 1 -26 6 -32 4 -42 -20z"/>
<path d="M1230 2768 c-12 -13 -33 -44 -46 -70 -13 -27 -28 -48 -32 -48 -4 0
-8 -38 -10 -85 -4 -91 0 -97 43 -69 22 15 24 21 19 70 -4 30 -3 54 0 54 4 0
20 -10 37 -22 28 -21 31 -22 40 -5 6 9 14 17 19 17 11 0 30 -56 30 -91 0 -40
20 -47 21 -7 4 109 -15 191 -60 257 -8 13 -12 13 -27 0 -16 -12 -17 -12 -11 4
9 23 2 22 -23 -5z m44 -100 c4 -19 -17 -24 -48 -12 -19 7 -19 13 -5 51 l10 28
19 -25 c10 -14 21 -33 24 -42z"/>
<path d="M1713 2761 c-16 -15 -37 -47 -47 -70 -11 -22 -22 -41 -25 -41 -3 0
-7 -38 -9 -85 -2 -47 -1 -85 3 -85 3 0 19 7 35 15 27 14 28 17 23 70 -6 60 -1
66 34 33 l23 -21 24 22 25 23 7 -38 c5 -22 9 -42 10 -46 1 -5 2 -19 3 -33 0
-14 6 -25 12 -25 8 0 10 26 7 88 -4 68 -12 102 -33 150 -24 53 -31 61 -48 56
-13 -4 -17 -2 -13 5 13 20 -2 12 -31 -18z m57 -100 c0 -5 -16 -8 -35 -8 -38 1
-38 0 -28 47 l6 33 29 -32 c15 -17 28 -35 28 -40z"/>
<path d="M2114 2763 c-14 -16 -34 -47 -45 -70 -10 -24 -22 -43 -26 -43 -4 0
-9 -38 -11 -85 -4 -91 0 -97 43 -69 23 15 24 20 19 70 -4 30 -4 54 0 54 4 0
20 -10 37 -22 l29 -22 17 23 16 23 13 -32 c21 -49 17 -66 -23 -108 -54 -56
-164 -174 -268 -288 -160 -176 -150 -168 -370 -260 -110 -45 -201 -87 -203
-93 -6 -18 9 -14 174 45 86 30 158 54 159 52 2 -2 -19 -28 -47 -58 -28 -30
-74 -80 -101 -110 -28 -30 -68 -74 -90 -97 -23 -24 -36 -46 -32 -53 5 -8 12
-6 25 7 10 10 94 94 188 187 l171 168 193 69 c106 39 211 76 233 84 328 114
364 131 365 162 0 15 -28 43 -43 43 -7 -1 -151 -58 -322 -129 -170 -71 -311
-127 -313 -126 -1 1 96 100 217 220 141 140 218 222 216 233 -2 9 -4 20 -4 24
-1 4 -10 12 -20 17 -14 8 -25 6 -44 -9 l-24 -19 -7 61 c-6 60 -47 168 -63 168
-5 0 -15 -6 -22 -12 -11 -11 -13 -10 -8 5 9 24 2 21 -29 -10z m59 -101 c8 -10
1 -12 -31 -10 -44 3 -48 10 -32 53 l10 27 22 -28 c12 -16 26 -35 31 -42z"/>
<path d="M1248 2319 c-10 -5 -18 -8 -18 -5 0 3 -16 -3 -35 -14 -42 -24 -68
-26 -40 -4 19 16 19 16 -5 9 -145 -42 -339 -257 -391 -432 -6 -23 -15 -40 -19
-38 -5 3 -11 -2 -14 -11 -3 -8 -2 -12 4 -9 6 3 10 -1 10 -10 0 -10 -5 -13 -12
-9 -7 5 -8 3 -3 -6 4 -7 3 -15 -3 -19 -12 -7 -24 -104 -26 -216 -5 -192 48
-365 159 -513 200 -270 553 -367 894 -248 75 26 165 72 211 108 48 37 168 156
196 195 16 21 31 40 34 43 19 19 64 114 89 186 22 66 45 193 37 202 -3 3 -22
-30 -41 -74 -46 -102 -68 -142 -126 -234 -57 -88 -65 -88 -13 0 52 90 75 146
93 230 36 167 -5 369 -110 535 -34 54 -42 62 -64 57 -32 -6 -32 -13 9 -69 77
-109 109 -220 108 -373 -2 -111 -4 -128 -21 -173 -6 -16 -9 -33 -5 -38 3 -5 1
-9 -4 -9 -5 0 -15 -19 -21 -42 -20 -67 -80 -157 -151 -228 -60 -60 -146 -117
-158 -105 -3 3 0 5 6 5 7 0 12 5 12 10 0 7 -6 7 -20 0 -41 -22 -18 -1 43 38
96 63 160 140 220 262 87 178 84 401 -7 561 -13 21 -25 37 -28 34 -3 -3 -22
17 -42 45 -24 34 -43 50 -58 50 -19 0 -15 -6 26 -47 50 -51 119 -174 109 -198
-3 -8 0 -15 7 -15 6 0 9 -4 5 -9 -3 -5 -1 -12 5 -16 5 -3 10 -12 10 -18 0 -7
-4 -6 -11 3 -9 12 -10 12 -5 -3 3 -10 6 -24 6 -30 0 -7 4 -6 10 3 5 8 10 10
10 4 0 -5 -5 -15 -12 -22 -9 -9 -9 -12 0 -12 7 0 12 -5 12 -11 0 -5 -6 -7 -12
-3 -7 4 -5 -1 4 -12 18 -21 17 -56 -1 -78 -6 -7 -11 -28 -13 -47 -1 -19 -8
-38 -14 -44 -7 -5 -20 -32 -29 -60 -9 -27 -20 -52 -24 -55 -4 -3 -21 -25 -38
-50 -17 -25 -55 -67 -86 -95 -72 -66 -80 -71 -105 -79 -12 -4 -22 -11 -22 -16
0 -11 22 -4 67 21 23 13 34 15 39 7 4 -7 2 -14 -4 -16 -7 -2 -10 -8 -7 -13 10
-14 -95 -74 -163 -93 -85 -23 -189 -24 -302 -1 -67 13 -178 75 -253 142 -189
167 -246 475 -125 680 11 18 15 33 9 33 -6 0 -38 -55 -72 -122 -56 -112 -61
-119 -56 -78 10 76 17 101 51 174 110 234 355 396 604 399 91 1 133 -6 210
-33 77 -28 82 -28 99 -3 15 22 14 24 -49 53 -111 52 -201 73 -323 75 -114 2
-170 -9 -282 -54 -66 -26 -134 -70 -132 -85 1 -6 -1 -19 -6 -29 -13 -30 0 -30
65 3 34 17 64 29 66 27 2 -2 -23 -21 -57 -42 -73 -45 -162 -130 -208 -200 -19
-27 -39 -54 -45 -60 -6 -5 -22 -37 -35 -70 -14 -33 -32 -66 -40 -73 -9 -8 -10
-11 -3 -7 6 3 12 2 12 -4 0 -5 -5 -11 -11 -13 -11 -4 -29 -111 -23 -141 1 -10
-1 -15 -5 -13 -5 3 -6 34 -4 68 2 38 1 58 -5 50 -14 -21 -12 -175 4 -254 9
-42 36 -117 66 -178 44 -91 62 -116 134 -188 46 -45 84 -84 84 -85 0 -2 -6 -4
-14 -4 -8 0 -14 4 -13 9 1 5 -9 17 -23 26 -24 16 -25 16 -11 -3 8 -11 -9 5
-38 35 -149 158 -166 185 -202 321 -27 104 -29 283 -5 369 9 30 19 66 22 80
12 54 111 227 163 282 29 32 49 58 45 58 -20 0 138 106 204 137 39 18 72 36
72 38 0 7 -2 6 -22 -6z m-452 -804 c2 -42 -5 -40 -12 4 -3 17 -2 31 3 31 4 0
9 -16 9 -35z m1315 -7 c-3 -21 -6 -26 -9 -15 -3 17 3 47 11 47 2 0 1 -15 -2
-32z m-1303 -93 c-3 -3 -9 2 -12 12 -6 14 -5 15 5 6 7 -7 10 -15 7 -18z m1280
-16 c-6 -16 -12 -28 -15 -26 -7 7 8 57 18 57 4 0 3 -14 -3 -31z m-1270 -35
c-3 -14 -5 -12 -10 9 -3 19 -2 25 4 19 6 -6 8 -18 6 -28z m1245 -19 c-3 -9 -8
-14 -10 -11 -3 3 -2 9 2 15 9 16 15 13 8 -4z m-62 -109 c-24 -30 -50 -61 -59
-68 -9 -7 5 14 32 47 27 33 51 66 53 73 3 7 8 11 11 8 2 -3 -14 -30 -37 -60z
m51 -150 c-23 -30 -68 -75 -101 -101 -33 -26 -58 -51 -55 -56 9 -15 -108 -66
-196 -86 -40 -8 -100 -10 -100 -3 0 9 14 14 69 25 59 12 170 63 241 110 67 45
170 146 170 167 0 6 3 8 6 5 4 -4 -12 -31 -34 -61z"/>
<path d="M1825 904 c-27 -13 -39 -21 -25 -18 29 7 100 43 85 43 -5 0 -32 -12
-60 -25z"/>
<path d="M1425 2163 c-51 -7 -134 -33 -163 -51 -38 -24 -151 -132 -164 -157
-6 -11 18 7 53 40 69 64 162 116 249 138 30 8 56 19 58 26 2 6 2 10 0 10 -1
-1 -16 -4 -33 -6z"/>
<path d="M968 2073 c-70 -74 -138 -195 -174 -313 -17 -54 -17 -60 -4 -60 5 0
9 3 8 8 -3 16 15 82 23 82 5 0 5 7 2 17 -4 10 -2 14 4 10 6 -4 17 1 24 11 13
16 13 16 -5 2 -18 -14 -18 -13 -11 10 16 53 75 149 125 203 61 67 68 92 8 30z"/>
<path d="M1060 1905 c-13 -14 -21 -27 -18 -30 2 -3 14 9 27 25 26 37 23 39 -9
5z"/>
<path d="M1182 1697 c-18 -6 -53 -28 -77 -49 -57 -50 -59 -79 -9 -134 19 -21
43 -49 51 -62 15 -22 15 -25 -7 -45 -12 -12 -20 -16 -16 -9 9 16 4 15 -39 -5
-34 -16 -47 -42 -22 -44 24 -2 52 3 64 12 23 19 122 67 128 61 3 -3 5 -13 5
-22 0 -34 25 -42 56 -18 16 12 32 27 36 32 4 6 14 4 26 -7 26 -24 34 -22 92
24 29 23 56 37 60 33 10 -11 -6 -54 -20 -54 -14 0 -13 -47 1 -56 6 -3 31 8 55
25 47 33 45 34 60 -16 6 -20 19 -15 53 19 24 25 34 29 43 20 16 -16 33 -15 75
5 34 16 36 16 52 -5 9 -11 23 -22 31 -23 24 -4 58 10 64 27 5 13 1 15 -19 10
-21 -5 -27 -1 -39 29 -18 42 -27 43 -72 9 -34 -26 -64 -27 -64 0 0 22 -26 27
-43 8 -8 -9 -21 -30 -29 -46 -21 -40 -33 -15 -14 26 9 18 27 46 41 62 42 49
84 121 91 154 6 28 4 32 -15 32 -41 0 -96 -76 -155 -215 -18 -42 -77 -99 -62
-59 4 10 10 40 13 67 8 62 -8 62 -84 -3 -32 -27 -61 -50 -66 -50 -4 0 -12 11
-17 25 -13 33 -22 32 -59 -10 -17 -19 -36 -35 -42 -35 -11 0 -10 7 5 88 7 33
-7 27 -57 -25 l-46 -47 -11 28 c-6 16 -28 49 -50 74 -45 51 -49 69 -20 100 25
26 32 28 23 5 -6 -15 -3 -15 27 3 65 38 66 80 2 61z m581 -64 c-12 -34 -68
-113 -71 -103 -2 6 12 36 32 66 37 55 50 68 39 37z"/>
<path d="M1872 1604 c-29 -20 -29 -46 -1 -42 27 4 48 33 33 48 -7 7 -17 5 -32
-6z"/>
<path d="M2095 1600 c-3 -5 -1 -10 4 -10 6 0 11 5 11 10 0 6 -2 10 -4 10 -3 0
-8 -4 -11 -10z"/>
</g>
</svg>
